<?xml version="1.0" encoding="utf-8"?>
<!-- Generator: Adobe Illustrator 17.0.0, SVG Export Plug-In . SVG Version: 6.00 Build 0)  -->
<!DOCTYPE svg PUBLIC "-//W3C//DTD SVG 1.1//EN" "http://www.w3.org/Graphics/SVG/1.1/DTD/svg11.dtd">
<svg version="1.1" id="Layer_1" xmlns="http://www.w3.org/2000/svg" xmlns:xlink="http://www.w3.org/1999/xlink" x="0px" y="0px"
	 width="418.091px" height="101.544px" viewBox="0 0 418.091 101.544" enable-background="new 0 0 418.091 101.544"
	 xml:space="preserve">
<circle fill="#EF4537" cx="50.753" cy="50.451" r="48.281"/>
<g>
	<path fill="#FFFFFF" d="M40.655,62.151H28.327l-2.153,6.971h-9.611l13.686-37.316h8.458l13.789,37.316h-9.662L40.655,62.151z
		 M30.48,55.205h8.022l-4.024-12.942L30.48,55.205z"/>
	<path fill="#FFFFFF" d="M84.866,56.486c-0.12,2.598-0.82,4.892-2.102,6.882c-1.282,1.991-3.08,3.533-5.395,4.626
		c-2.315,1.094-4.959,1.641-7.933,1.641c-4.904,0-8.765-1.598-11.584-4.793c-2.819-3.194-4.229-7.705-4.229-13.532v-1.846
		c0-3.655,0.636-6.855,1.909-9.598s3.105-4.86,5.498-6.356c2.392-1.494,5.16-2.242,8.304-2.242c4.528,0,8.167,1.191,10.918,3.575
		c2.75,2.384,4.314,5.669,4.69,9.854h-8.97c-0.068-2.272-0.641-3.904-1.717-4.896c-1.076-0.99-2.716-1.486-4.921-1.486
		c-2.238,0-3.878,0.838-4.92,2.512c-1.042,1.675-1.589,4.349-1.641,8.022v2.64c0,3.981,0.5,6.826,1.5,8.534
		c1,1.709,2.721,2.563,5.164,2.563c2.067,0,3.648-0.487,4.742-1.461c1.093-0.975,1.674-2.521,1.743-4.64L84.866,56.486
		L84.866,56.486z"/>
</g>
<g>
	<g>
		<path fill="#EF4537" d="M114.251,54.363h-4.122l-0.72,2.331h-3.214l4.577-12.479h2.828l4.611,12.479h-3.231L114.251,54.363z
			 M110.849,52.041h2.683l-1.346-4.328L110.849,52.041z"/>
		<path fill="#EF4537" d="M125.555,53.377c0-0.44-0.155-0.783-0.467-1.028c-0.312-0.246-0.858-0.5-1.642-0.763
			c-0.782-0.264-1.422-0.518-1.919-0.764c-1.617-0.794-2.425-1.885-2.425-3.273c0-0.691,0.201-1.302,0.604-1.83
			s0.973-0.939,1.71-1.234c0.737-0.294,1.565-0.441,2.485-0.441c0.897,0,1.701,0.16,2.413,0.48c0.711,0.32,1.264,0.775,1.658,1.367
			c0.395,0.591,0.591,1.267,0.591,2.026h-2.999c0-0.508-0.156-0.902-0.467-1.183c-0.312-0.279-0.733-0.42-1.265-0.42
			c-0.537,0-0.961,0.119-1.272,0.355c-0.312,0.237-0.467,0.539-0.467,0.904c0,0.32,0.171,0.61,0.514,0.87s0.945,0.528,1.809,0.806
			c0.862,0.277,1.571,0.576,2.125,0.896c1.349,0.777,2.022,1.849,2.022,3.214c0,1.092-0.411,1.948-1.233,2.571
			c-0.823,0.623-1.951,0.935-3.386,0.935c-1.012,0-1.927-0.182-2.747-0.545c-0.82-0.362-1.437-0.859-1.851-1.491
			c-0.415-0.631-0.622-1.358-0.622-2.181h3.017c0,0.668,0.172,1.161,0.518,1.479c0.346,0.316,0.907,0.476,1.684,0.476
			c0.497,0,0.89-0.107,1.179-0.321C125.411,54.067,125.555,53.766,125.555,53.377z"/>
		<path fill="#EF4537" d="M136.542,53.377c0-0.44-0.155-0.783-0.467-1.028c-0.312-0.246-0.858-0.5-1.642-0.763
			c-0.782-0.264-1.423-0.518-1.92-0.764c-1.616-0.794-2.425-1.885-2.425-3.273c0-0.691,0.201-1.302,0.604-1.83
			c0.402-0.528,0.973-0.939,1.709-1.234c0.737-0.294,1.565-0.441,2.485-0.441c0.897,0,1.701,0.16,2.413,0.48
			c0.711,0.32,1.264,0.775,1.658,1.367c0.395,0.591,0.591,1.267,0.591,2.026h-2.999c0-0.508-0.156-0.902-0.467-1.183
			c-0.312-0.279-0.733-0.42-1.265-0.42c-0.537,0-0.961,0.119-1.272,0.355c-0.312,0.237-0.467,0.539-0.467,0.904
			c0,0.32,0.171,0.61,0.514,0.87s0.945,0.528,1.809,0.806c0.862,0.277,1.571,0.576,2.125,0.896c1.349,0.777,2.022,1.849,2.022,3.214
			c0,1.092-0.411,1.948-1.233,2.571c-0.823,0.623-1.951,0.935-3.386,0.935c-1.011,0-1.927-0.182-2.746-0.545
			c-0.82-0.362-1.438-0.859-1.852-1.491c-0.414-0.631-0.621-1.358-0.621-2.181h3.017c0,0.668,0.173,1.161,0.519,1.479
			c0.346,0.316,0.906,0.476,1.684,0.476c0.497,0,0.89-0.107,1.179-0.321C136.398,54.067,136.542,53.766,136.542,53.377z"/>
		<path fill="#EF4537" d="M144.298,56.694h-3V44.215h3V56.694z"/>
		<path fill="#EF4537" d="M152.826,53.377c0-0.44-0.155-0.783-0.467-1.028c-0.312-0.246-0.858-0.5-1.642-0.763
			c-0.782-0.264-1.423-0.518-1.92-0.764c-1.616-0.794-2.425-1.885-2.425-3.273c0-0.691,0.201-1.302,0.604-1.83
			c0.402-0.528,0.973-0.939,1.709-1.234c0.737-0.294,1.565-0.441,2.485-0.441c0.897,0,1.701,0.16,2.413,0.48
			c0.711,0.32,1.264,0.775,1.658,1.367c0.395,0.591,0.591,1.267,0.591,2.026h-2.999c0-0.508-0.156-0.902-0.467-1.183
			c-0.312-0.279-0.733-0.42-1.265-0.42c-0.537,0-0.961,0.119-1.272,0.355c-0.312,0.237-0.467,0.539-0.467,0.904
			c0,0.32,0.171,0.61,0.514,0.87s0.945,0.528,1.809,0.806c0.862,0.277,1.571,0.576,2.125,0.896c1.349,0.777,2.022,1.849,2.022,3.214
			c0,1.092-0.411,1.948-1.233,2.571c-0.823,0.623-1.951,0.935-3.386,0.935c-1.011,0-1.927-0.182-2.746-0.545
			c-0.82-0.362-1.438-0.859-1.852-1.491c-0.414-0.631-0.621-1.358-0.621-2.181h3.017c0,0.668,0.173,1.161,0.519,1.479
			c0.346,0.316,0.906,0.476,1.684,0.476c0.497,0,0.89-0.107,1.179-0.321C152.681,54.067,152.826,53.766,152.826,53.377z"/>
		<path fill="#EF4537" d="M167.172,46.538h-3.745v10.156h-3.008V46.538h-3.677v-2.322h10.43V46.538z"/>
		<path fill="#EF4537" d="M174.499,54.363h-4.122l-0.72,2.331h-3.214l4.576-12.479h2.828l4.611,12.479h-3.231L174.499,54.363z
			 M171.097,52.041h2.683l-1.346-4.328L171.097,52.041z"/>
		<path fill="#EF4537" d="M189.789,56.694h-2.991l-4.422-7.765v7.765h-3.009V44.215h3.009l4.413,7.765v-7.765h3V56.694z"/>
		<path fill="#EF4537" d="M201.788,52.468c-0.04,0.869-0.273,1.636-0.702,2.302c-0.429,0.665-1.03,1.182-1.805,1.547
			c-0.773,0.365-1.658,0.549-2.652,0.549c-1.64,0-2.931-0.534-3.873-1.604c-0.943-1.068-1.414-2.576-1.414-4.524v-0.617
			c0-1.223,0.212-2.293,0.638-3.21s1.039-1.625,1.839-2.125s1.726-0.75,2.776-0.75c1.515,0,2.731,0.398,3.651,1.195
			s1.442,1.896,1.568,3.295h-3c-0.022-0.76-0.214-1.306-0.574-1.637c-0.359-0.331-0.908-0.497-1.646-0.497
			c-0.748,0-1.297,0.28-1.646,0.84c-0.349,0.561-0.531,1.454-0.548,2.683v0.883c0,1.331,0.167,2.283,0.501,2.854
			s0.91,0.856,1.727,0.856c0.691,0,1.22-0.163,1.586-0.488c0.365-0.326,0.56-0.843,0.583-1.552
			C198.797,52.468,201.788,52.468,201.788,52.468z"/>
		<path fill="#EF4537" d="M210.949,51.397h-4.73v2.982h5.588v2.314h-8.597V44.215h8.613v2.322h-5.604v2.632h4.73V51.397z"/>
		<path fill="#EF4537" d="M219.819,49.889c-0.497-0.601-0.858-1.136-1.084-1.607s-0.338-0.938-0.338-1.401
			c0-0.874,0.26-1.565,0.779-2.073c0.521-0.509,1.217-0.764,2.092-0.764c0.794,0,1.437,0.23,1.928,0.69s0.737,1.044,0.737,1.753
			c0,0.822-0.475,1.631-1.423,2.425l-1.371,1.063l3.428,3.993c0.521-0.84,0.78-1.791,0.78-2.854h0.951
			c0,1.417-0.365,2.614-1.097,3.591l1.705,1.988h-1.234l-1.079-1.251c-0.452,0.445-0.973,0.794-1.564,1.045
			c-0.591,0.252-1.216,0.378-1.872,0.378c-1.188,0-2.132-0.305-2.829-0.913c-0.696-0.608-1.045-1.421-1.045-2.438
			c0-0.605,0.179-1.179,0.535-1.718c0.357-0.54,0.984-1.147,1.882-1.821L219.819,49.889z M221.157,56c0.52,0,1.023-0.109,1.512-0.33
			c0.489-0.22,0.928-0.532,1.316-0.938l-3.488-4.045l-0.12-0.129l-0.395,0.301c-1.12,0.914-1.68,1.8-1.68,2.656
			c0,0.749,0.257,1.35,0.771,1.804C219.588,55.773,220.282,56,221.157,56z M219.425,46.846c0,0.697,0.386,1.521,1.157,2.469
			l1.122-0.857c0.366-0.263,0.666-0.551,0.9-0.865c0.233-0.314,0.351-0.683,0.351-1.105c0-0.446-0.153-0.819-0.462-1.119
			s-0.721-0.449-1.234-0.449c-0.561,0-1.006,0.18-1.337,0.539C219.59,45.818,219.425,46.281,219.425,46.846z"/>
		<path fill="#EF4537" d="M242.565,52.468c-0.04,0.869-0.273,1.636-0.702,2.302c-0.429,0.665-1.03,1.182-1.805,1.547
			c-0.773,0.365-1.658,0.549-2.652,0.549c-1.64,0-2.931-0.534-3.873-1.604c-0.943-1.068-1.414-2.576-1.414-4.524v-0.617
			c0-1.223,0.212-2.293,0.638-3.21s1.039-1.625,1.839-2.125s1.726-0.75,2.776-0.75c1.515,0,2.731,0.398,3.651,1.195
			s1.442,1.896,1.568,3.295h-3c-0.022-0.76-0.214-1.306-0.574-1.637c-0.359-0.331-0.908-0.497-1.646-0.497
			c-0.748,0-1.297,0.28-1.646,0.84c-0.349,0.561-0.531,1.454-0.548,2.683v0.883c0,1.331,0.167,2.283,0.501,2.854
			s0.91,0.856,1.727,0.856c0.691,0,1.22-0.163,1.586-0.488c0.365-0.326,0.56-0.843,0.583-1.552
			C239.574,52.468,242.565,52.468,242.565,52.468z"/>
		<path fill="#EF4537" d="M254.554,50.711c0,1.218-0.226,2.294-0.677,3.231s-1.093,1.658-1.924,2.164
			c-0.832,0.506-1.778,0.759-2.842,0.759c-1.063,0-2.005-0.245-2.828-0.733c-0.822-0.488-1.464-1.187-1.924-2.096
			c-0.46-0.908-0.701-1.95-0.724-3.128v-0.702c0-1.224,0.224-2.302,0.672-3.236c0.449-0.934,1.092-1.655,1.929-2.163
			c0.837-0.509,1.79-0.764,2.858-0.764c1.057,0,1.999,0.252,2.828,0.755c0.828,0.503,1.473,1.218,1.933,2.146
			s0.692,1.993,0.698,3.192L254.554,50.711L254.554,50.711z M251.495,50.189c0-1.24-0.207-2.182-0.621-2.824
			s-1.007-0.964-1.778-0.964c-1.509,0-2.306,1.131-2.392,3.394l-0.008,0.917c0,1.223,0.202,2.163,0.608,2.82
			c0.405,0.657,1.008,0.985,1.808,0.985c0.76,0,1.346-0.323,1.757-0.969c0.412-0.646,0.62-1.574,0.626-2.785L251.495,50.189
			L251.495,50.189z"/>
		<path fill="#EF4537" d="M266.528,56.694h-2.991l-4.422-7.765v7.765h-3.009V44.215h3.009l4.413,7.765v-7.765h3V56.694z"/>
		<path fill="#EF4537" d="M274.866,53.377c0-0.44-0.155-0.783-0.467-1.028c-0.312-0.246-0.858-0.5-1.642-0.763
			c-0.782-0.264-1.423-0.518-1.92-0.764c-1.616-0.794-2.425-1.885-2.425-3.273c0-0.691,0.201-1.302,0.604-1.83
			c0.402-0.528,0.973-0.939,1.709-1.234c0.737-0.294,1.565-0.441,2.485-0.441c0.897,0,1.701,0.16,2.413,0.48
			c0.711,0.32,1.264,0.775,1.658,1.367c0.395,0.591,0.591,1.267,0.591,2.026h-2.999c0-0.508-0.156-0.902-0.467-1.183
			c-0.312-0.279-0.733-0.42-1.265-0.42c-0.537,0-0.961,0.119-1.272,0.355c-0.312,0.237-0.467,0.539-0.467,0.904
			c0,0.32,0.171,0.61,0.514,0.87s0.945,0.528,1.809,0.806c0.862,0.277,1.571,0.576,2.125,0.896c1.349,0.777,2.022,1.849,2.022,3.214
			c0,1.092-0.411,1.948-1.233,2.571c-0.823,0.623-1.951,0.935-3.386,0.935c-1.011,0-1.927-0.182-2.746-0.545
			c-0.82-0.362-1.438-0.859-1.852-1.491c-0.414-0.631-0.621-1.358-0.621-2.181h3.017c0,0.668,0.173,1.161,0.519,1.479
			c0.346,0.316,0.906,0.476,1.684,0.476c0.497,0,0.89-0.107,1.179-0.321C274.721,54.067,274.866,53.766,274.866,53.377z"/>
		<path fill="#EF4537" d="M289.204,44.215v8.168c0,0.925-0.196,1.727-0.591,2.403c-0.395,0.678-0.96,1.193-1.697,1.547
			c-0.736,0.354-1.608,0.532-2.613,0.532c-1.521,0-2.717-0.395-3.591-1.184c-0.875-0.788-1.32-1.868-1.338-3.239v-8.228h3.025v8.288
			c0.034,1.365,0.669,2.048,1.903,2.048c0.622,0,1.094-0.172,1.414-0.515c0.319-0.343,0.479-0.899,0.479-1.671v-8.15h3.009V44.215z"
			/>
		<path fill="#EF4537" d="M294.089,54.379h5.236v2.314h-8.245V44.215h3.009V54.379z"/>
		<path fill="#EF4537" d="M308.632,46.538h-3.745v10.156h-3.008V46.538h-3.677v-2.322h10.43V46.538z"/>
		<path fill="#EF4537" d="M315.96,54.363h-4.122l-0.72,2.331h-3.214l4.576-12.479h2.828l4.611,12.479h-3.231L315.96,54.363z
			 M312.558,52.041h2.683l-1.346-4.328L312.558,52.041z"/>
		<path fill="#EF4537" d="M331.249,56.694h-2.991l-4.422-7.765v7.765h-3.009V44.215h3.009l4.413,7.765v-7.765h3V56.694z"/>
		<path fill="#EF4537" d="M343.247,52.468c-0.04,0.869-0.273,1.636-0.702,2.302c-0.429,0.665-1.03,1.182-1.805,1.547
			c-0.773,0.365-1.658,0.549-2.652,0.549c-1.64,0-2.931-0.534-3.873-1.604c-0.943-1.068-1.414-2.576-1.414-4.524v-0.617
			c0-1.223,0.212-2.293,0.638-3.21s1.039-1.625,1.839-2.125s1.726-0.75,2.776-0.75c1.515,0,2.731,0.398,3.651,1.195
			s1.442,1.896,1.568,3.295h-3c-0.022-0.76-0.214-1.306-0.574-1.637c-0.359-0.331-0.908-0.497-1.646-0.497
			c-0.748,0-1.297,0.28-1.646,0.84c-0.349,0.561-0.531,1.454-0.548,2.683v0.883c0,1.331,0.167,2.283,0.501,2.854
			s0.91,0.856,1.727,0.856c0.691,0,1.22-0.163,1.586-0.488c0.365-0.326,0.56-0.843,0.583-1.552
			C340.256,52.468,343.247,52.468,343.247,52.468z"/>
		<path fill="#EF4537" d="M349.239,49.632l2.297-5.417h3.248l-4.02,7.996v4.482h-3.051v-4.482l-4.011-7.996h3.23L349.239,49.632z"/>
	</g>
</g>
</svg>
