<?xml version="1.0" encoding="utf-8"?>
<!-- Generator: Adobe Illustrator 17.0.0, SVG Export Plug-In . SVG Version: 6.00 Build 0)  -->
<!DOCTYPE svg PUBLIC "-//W3C//DTD SVG 1.1//EN" "http://www.w3.org/Graphics/SVG/1.1/DTD/svg11.dtd">
<svg version="1.1" id="Layer_1" xmlns="http://www.w3.org/2000/svg" xmlns:xlink="http://www.w3.org/1999/xlink" x="0px" y="0px"
	 width="319.064px" height="115.494px" viewBox="0 0 319.064 115.494" enable-background="new 0 0 319.064 115.494"
	 xml:space="preserve">
<g>
	<circle fill="#EF4537" cx="158.416" cy="48.882" r="42.623"/>
	<g>
		<path fill="#FFFFFF" d="M149.501,59.211h-10.883l-1.901,6.154h-8.485l12.082-32.944h7.467l12.173,32.944h-8.53L149.501,59.211z
			 M140.519,53.079h7.082l-3.552-11.426L140.519,53.079z"/>
		<path fill="#FFFFFF" d="M188.532,54.21c-0.106,2.293-0.724,4.318-1.855,6.075c-1.132,1.758-2.719,3.119-4.763,4.084
			c-2.044,0.966-4.378,1.448-7.003,1.448c-4.329,0-7.738-1.41-10.227-4.231c-2.489-2.82-3.733-6.802-3.733-11.947v-1.629
			c0-3.227,0.562-6.052,1.685-8.473c1.124-2.421,2.742-4.291,4.853-5.612c2.112-1.319,4.556-1.979,7.331-1.979
			c3.997,0,7.21,1.052,9.639,3.156c2.428,2.104,3.808,5.005,4.14,8.7h-7.919c-0.06-2.006-0.566-3.447-1.516-4.322
			c-0.95-0.874-2.398-1.312-4.344-1.312c-1.976,0-3.424,0.74-4.344,2.217c-0.92,1.479-1.403,3.839-1.448,7.082v2.33
			c0,3.515,0.441,6.026,1.324,7.534c0.882,1.509,2.402,2.263,4.559,2.263c1.825,0,3.221-0.43,4.186-1.29
			c0.965-0.86,1.478-2.225,1.538-4.096H188.532z"/>
	</g>
</g>
<g>
	<g>
		<path fill="#EF4537" d="M12.576,106.732H8.454l-0.72,2.331H4.52l4.577-12.479h2.828l4.611,12.479h-3.231L12.576,106.732z
			 M9.174,104.41h2.683l-1.346-4.328L9.174,104.41z"/>
		<path fill="#EF4537" d="M23.88,105.747c0-0.44-0.155-0.783-0.467-1.028c-0.312-0.246-0.858-0.5-1.642-0.763
			c-0.782-0.264-1.422-0.518-1.919-0.764c-1.617-0.794-2.425-1.885-2.425-3.273c0-0.691,0.201-1.302,0.604-1.83
			s0.973-0.939,1.71-1.234c0.737-0.294,1.565-0.441,2.485-0.441c0.897,0,1.701,0.16,2.413,0.48c0.711,0.32,1.264,0.775,1.658,1.367
			c0.395,0.591,0.591,1.267,0.591,2.026h-2.999c0-0.508-0.156-0.902-0.467-1.183c-0.312-0.279-0.733-0.42-1.265-0.42
			c-0.537,0-0.961,0.119-1.272,0.355c-0.312,0.237-0.467,0.539-0.467,0.904c0,0.32,0.171,0.61,0.514,0.87s0.945,0.528,1.809,0.806
			c0.862,0.277,1.571,0.576,2.125,0.896c1.349,0.777,2.022,1.849,2.022,3.214c0,1.092-0.411,1.948-1.233,2.571
			c-0.823,0.623-1.951,0.935-3.386,0.935c-1.012,0-1.927-0.182-2.747-0.545c-0.82-0.362-1.437-0.859-1.851-1.491
			c-0.415-0.631-0.622-1.358-0.622-2.181h3.017c0,0.668,0.172,1.161,0.518,1.479c0.346,0.316,0.907,0.476,1.684,0.476
			c0.497,0,0.89-0.107,1.179-0.321C23.736,106.437,23.88,106.136,23.88,105.747z"/>
		<path fill="#EF4537" d="M34.867,105.747c0-0.44-0.155-0.783-0.467-1.028c-0.312-0.246-0.858-0.5-1.642-0.763
			c-0.782-0.264-1.423-0.518-1.92-0.764c-1.616-0.794-2.425-1.885-2.425-3.273c0-0.691,0.201-1.302,0.604-1.83
			c0.402-0.528,0.973-0.939,1.709-1.234c0.737-0.294,1.565-0.441,2.485-0.441c0.897,0,1.701,0.16,2.413,0.48
			c0.711,0.32,1.264,0.775,1.658,1.367c0.395,0.591,0.591,1.267,0.591,2.026h-2.999c0-0.508-0.156-0.902-0.467-1.183
			c-0.312-0.279-0.733-0.42-1.265-0.42c-0.537,0-0.961,0.119-1.272,0.355c-0.312,0.237-0.467,0.539-0.467,0.904
			c0,0.32,0.171,0.61,0.514,0.87c0.343,0.26,0.945,0.528,1.809,0.806c0.862,0.277,1.571,0.576,2.125,0.896
			c1.349,0.777,2.022,1.849,2.022,3.214c0,1.092-0.411,1.948-1.233,2.571c-0.823,0.623-1.951,0.935-3.386,0.935
			c-1.011,0-1.927-0.182-2.746-0.545c-0.82-0.362-1.438-0.859-1.852-1.491c-0.414-0.631-0.621-1.358-0.621-2.181h3.017
			c0,0.668,0.173,1.161,0.519,1.479c0.346,0.316,0.906,0.476,1.684,0.476c0.497,0,0.89-0.107,1.179-0.321
			C34.723,106.437,34.867,106.136,34.867,105.747z"/>
		<path fill="#EF4537" d="M42.623,109.063h-3V96.585h3V109.063z"/>
		<path fill="#EF4537" d="M51.151,105.747c0-0.44-0.155-0.783-0.467-1.028c-0.312-0.246-0.858-0.5-1.642-0.763
			c-0.782-0.264-1.423-0.518-1.92-0.764c-1.616-0.794-2.425-1.885-2.425-3.273c0-0.691,0.201-1.302,0.604-1.83
			c0.402-0.528,0.973-0.939,1.709-1.234c0.737-0.294,1.565-0.441,2.485-0.441c0.897,0,1.701,0.16,2.413,0.48
			c0.711,0.32,1.264,0.775,1.658,1.367c0.395,0.591,0.591,1.267,0.591,2.026h-2.999c0-0.508-0.156-0.902-0.467-1.183
			c-0.312-0.279-0.733-0.42-1.265-0.42c-0.537,0-0.961,0.119-1.272,0.355c-0.312,0.237-0.467,0.539-0.467,0.904
			c0,0.32,0.171,0.61,0.514,0.87s0.945,0.528,1.809,0.806c0.862,0.277,1.571,0.576,2.125,0.896c1.349,0.777,2.022,1.849,2.022,3.214
			c0,1.092-0.411,1.948-1.233,2.571c-0.823,0.623-1.951,0.935-3.386,0.935c-1.011,0-1.927-0.182-2.746-0.545
			c-0.82-0.362-1.438-0.859-1.852-1.491c-0.414-0.631-0.621-1.358-0.621-2.181h3.017c0,0.668,0.173,1.161,0.519,1.479
			c0.346,0.316,0.906,0.476,1.684,0.476c0.497,0,0.89-0.107,1.179-0.321C51.006,106.437,51.151,106.136,51.151,105.747z"/>
		<path fill="#EF4537" d="M65.497,98.907h-3.745v10.156h-3.008V98.907h-3.677v-2.322h10.43V98.907z"/>
		<path fill="#EF4537" d="M72.824,106.732h-4.122l-0.72,2.331h-3.214l4.576-12.479h2.828l4.611,12.479h-3.231L72.824,106.732z
			 M69.422,104.41h2.683l-1.346-4.328L69.422,104.41z"/>
		<path fill="#EF4537" d="M88.115,109.063h-2.991l-4.422-7.765v7.765h-3.009V96.585h3.009l4.413,7.765v-7.765h3V109.063z"/>
		<path fill="#EF4537" d="M100.113,104.838c-0.04,0.869-0.273,1.636-0.702,2.302c-0.429,0.665-1.03,1.182-1.805,1.547
			c-0.773,0.365-1.658,0.549-2.652,0.549c-1.64,0-2.931-0.534-3.873-1.604c-0.943-1.068-1.414-2.576-1.414-4.524v-0.617
			c0-1.223,0.212-2.293,0.638-3.21s1.039-1.625,1.839-2.125s1.726-0.75,2.776-0.75c1.515,0,2.731,0.398,3.651,1.195
			s1.442,1.896,1.568,3.295h-3c-0.022-0.76-0.214-1.306-0.574-1.637c-0.359-0.331-0.908-0.497-1.646-0.497
			c-0.748,0-1.297,0.28-1.646,0.84c-0.349,0.561-0.531,1.454-0.548,2.683v0.883c0,1.331,0.167,2.283,0.501,2.854
			s0.91,0.856,1.727,0.856c0.691,0,1.22-0.163,1.586-0.488c0.365-0.326,0.56-0.843,0.583-1.552H100.113z"/>
		<path fill="#EF4537" d="M109.274,103.767h-4.73v2.982h5.588v2.314h-8.597V96.585h8.613v2.322h-5.604v2.632h4.73V103.767z"/>
		<path fill="#EF4537" d="M118.144,102.259c-0.497-0.601-0.858-1.136-1.084-1.607s-0.338-0.938-0.338-1.401
			c0-0.874,0.26-1.565,0.779-2.073c0.521-0.509,1.217-0.764,2.092-0.764c0.794,0,1.437,0.23,1.928,0.69s0.737,1.044,0.737,1.753
			c0,0.822-0.475,1.631-1.423,2.425l-1.371,1.063l3.428,3.993c0.521-0.84,0.78-1.791,0.78-2.854h0.951
			c0,1.417-0.365,2.614-1.097,3.591l1.705,1.988h-1.234l-1.079-1.251c-0.452,0.445-0.973,0.794-1.564,1.045
			c-0.591,0.252-1.216,0.378-1.872,0.378c-1.188,0-2.132-0.305-2.829-0.913c-0.696-0.608-1.045-1.421-1.045-2.438
			c0-0.605,0.179-1.179,0.535-1.718c0.357-0.54,0.984-1.147,1.882-1.821L118.144,102.259z M119.482,108.369
			c0.52,0,1.023-0.109,1.512-0.33c0.489-0.22,0.928-0.532,1.316-0.938l-3.488-4.045l-0.12-0.129l-0.395,0.301
			c-1.12,0.914-1.68,1.8-1.68,2.656c0,0.749,0.257,1.35,0.771,1.804C117.913,108.143,118.607,108.369,119.482,108.369z
			 M117.75,99.216c0,0.697,0.386,1.521,1.157,2.469l1.122-0.857c0.366-0.263,0.666-0.551,0.9-0.865
			c0.233-0.314,0.351-0.683,0.351-1.105c0-0.446-0.153-0.819-0.462-1.119s-0.721-0.449-1.234-0.449c-0.561,0-1.006,0.18-1.337,0.539
			C117.915,98.188,117.75,98.65,117.75,99.216z"/>
		<path fill="#EF4537" d="M140.89,104.838c-0.04,0.869-0.273,1.636-0.702,2.302c-0.429,0.665-1.03,1.182-1.805,1.547
			c-0.773,0.365-1.658,0.549-2.652,0.549c-1.64,0-2.931-0.534-3.873-1.604c-0.943-1.068-1.414-2.576-1.414-4.524v-0.617
			c0-1.223,0.212-2.293,0.638-3.21s1.039-1.625,1.839-2.125s1.726-0.75,2.776-0.75c1.515,0,2.731,0.398,3.651,1.195
			s1.442,1.896,1.568,3.295h-3c-0.022-0.76-0.214-1.306-0.574-1.637c-0.359-0.331-0.908-0.497-1.646-0.497
			c-0.748,0-1.297,0.28-1.646,0.84c-0.349,0.561-0.531,1.454-0.548,2.683v0.883c0,1.331,0.167,2.283,0.501,2.854
			s0.91,0.856,1.727,0.856c0.691,0,1.22-0.163,1.586-0.488c0.365-0.326,0.56-0.843,0.583-1.552H140.89z"/>
		<path fill="#EF4537" d="M152.879,103.081c0,1.218-0.226,2.294-0.677,3.231s-1.093,1.658-1.924,2.164
			c-0.832,0.506-1.778,0.759-2.842,0.759c-1.063,0-2.005-0.245-2.828-0.733c-0.822-0.488-1.464-1.187-1.924-2.096
			c-0.46-0.908-0.701-1.95-0.724-3.128v-0.702c0-1.224,0.224-2.302,0.672-3.236c0.449-0.934,1.092-1.655,1.929-2.163
			c0.837-0.509,1.79-0.764,2.858-0.764c1.057,0,1.999,0.252,2.828,0.755c0.828,0.503,1.473,1.218,1.933,2.146
			s0.692,1.993,0.698,3.192V103.081z M149.82,102.559c0-1.24-0.207-2.182-0.621-2.824s-1.007-0.964-1.778-0.964
			c-1.509,0-2.306,1.131-2.392,3.394l-0.008,0.917c0,1.223,0.202,2.163,0.608,2.82c0.405,0.657,1.008,0.985,1.808,0.985
			c0.76,0,1.346-0.323,1.757-0.969c0.412-0.646,0.62-1.574,0.626-2.785V102.559z"/>
		<path fill="#EF4537" d="M164.853,109.063h-2.991l-4.422-7.765v7.765h-3.009V96.585h3.009l4.413,7.765v-7.765h3V109.063z"/>
		<path fill="#EF4537" d="M173.191,105.747c0-0.44-0.155-0.783-0.467-1.028c-0.312-0.246-0.858-0.5-1.642-0.763
			c-0.782-0.264-1.423-0.518-1.92-0.764c-1.616-0.794-2.425-1.885-2.425-3.273c0-0.691,0.201-1.302,0.604-1.83
			c0.402-0.528,0.973-0.939,1.709-1.234c0.737-0.294,1.565-0.441,2.485-0.441c0.897,0,1.701,0.16,2.413,0.48
			c0.711,0.32,1.264,0.775,1.658,1.367c0.395,0.591,0.591,1.267,0.591,2.026h-2.999c0-0.508-0.156-0.902-0.467-1.183
			c-0.312-0.279-0.733-0.42-1.265-0.42c-0.537,0-0.961,0.119-1.272,0.355c-0.312,0.237-0.467,0.539-0.467,0.904
			c0,0.32,0.171,0.61,0.514,0.87s0.945,0.528,1.809,0.806c0.862,0.277,1.571,0.576,2.125,0.896c1.349,0.777,2.022,1.849,2.022,3.214
			c0,1.092-0.411,1.948-1.233,2.571c-0.823,0.623-1.951,0.935-3.386,0.935c-1.011,0-1.927-0.182-2.746-0.545
			c-0.82-0.362-1.438-0.859-1.852-1.491c-0.414-0.631-0.621-1.358-0.621-2.181h3.017c0,0.668,0.173,1.161,0.519,1.479
			c0.346,0.316,0.906,0.476,1.684,0.476c0.497,0,0.89-0.107,1.179-0.321C173.046,106.437,173.191,106.136,173.191,105.747z"/>
		<path fill="#EF4537" d="M187.529,96.585v8.168c0,0.925-0.196,1.727-0.591,2.403c-0.395,0.678-0.96,1.193-1.697,1.547
			c-0.736,0.354-1.608,0.532-2.613,0.532c-1.521,0-2.717-0.395-3.591-1.184c-0.875-0.788-1.32-1.868-1.338-3.239v-8.228h3.025v8.288
			c0.034,1.365,0.669,2.048,1.903,2.048c0.622,0,1.094-0.172,1.414-0.515c0.319-0.343,0.479-0.899,0.479-1.671v-8.15H187.529z"/>
		<path fill="#EF4537" d="M192.414,106.749h5.236v2.314h-8.245V96.585h3.009V106.749z"/>
		<path fill="#EF4537" d="M206.957,98.907h-3.745v10.156h-3.008V98.907h-3.677v-2.322h10.43V98.907z"/>
		<path fill="#EF4537" d="M214.285,106.732h-4.122l-0.72,2.331h-3.214l4.576-12.479h2.828l4.611,12.479h-3.231L214.285,106.732z
			 M210.883,104.41h2.683l-1.346-4.328L210.883,104.41z"/>
		<path fill="#EF4537" d="M229.574,109.063h-2.991l-4.422-7.765v7.765h-3.009V96.585h3.009l4.413,7.765v-7.765h3V109.063z"/>
		<path fill="#EF4537" d="M241.573,104.838c-0.04,0.869-0.273,1.636-0.702,2.302c-0.429,0.665-1.03,1.182-1.805,1.547
			c-0.773,0.365-1.658,0.549-2.652,0.549c-1.64,0-2.931-0.534-3.873-1.604c-0.943-1.068-1.414-2.576-1.414-4.524v-0.617
			c0-1.223,0.212-2.293,0.638-3.21s1.039-1.625,1.839-2.125s1.726-0.75,2.776-0.75c1.515,0,2.731,0.398,3.651,1.195
			s1.442,1.896,1.568,3.295h-3c-0.022-0.76-0.214-1.306-0.574-1.637c-0.359-0.331-0.908-0.497-1.646-0.497
			c-0.748,0-1.297,0.28-1.646,0.84c-0.349,0.561-0.531,1.454-0.548,2.683v0.883c0,1.331,0.167,2.283,0.501,2.854
			s0.91,0.856,1.727,0.856c0.691,0,1.22-0.163,1.586-0.488c0.365-0.326,0.56-0.843,0.583-1.552H241.573z"/>
		<path fill="#EF4537" d="M247.564,102.002l2.297-5.417h3.248l-4.02,7.996v4.482h-3.051v-4.482l-4.011-7.996h3.23L247.564,102.002z"
			/>
		<path fill="#EF4537" d="M259.023,109.063V96.585h3.685c1.337,0,2.352,0.275,3.043,0.827s1.037,1.365,1.037,2.44
			c0,0.646-0.176,1.207-0.527,1.685c-0.352,0.479-0.833,0.819-1.444,1.025c0.726,0.159,1.311,0.517,1.753,1.07
			s0.664,1.193,0.664,1.919c0,1.102-0.355,1.963-1.066,2.582c-0.712,0.62-1.701,0.93-2.97,0.93H259.023z M260.076,102.182h2.88
			c0.88-0.018,1.562-0.225,2.044-0.623c0.482-0.397,0.725-0.978,0.725-1.738c0-0.802-0.25-1.393-0.75-1.773
			c-0.5-0.38-1.256-0.57-2.268-0.57h-2.631V102.182z M260.076,103.073v5.099h3.163c0.902,0,1.618-0.229,2.146-0.688
			s0.793-1.097,0.793-1.912c0-0.771-0.253-1.379-0.759-1.827c-0.506-0.447-1.204-0.671-2.096-0.671H260.076z"/>
		<path fill="#EF4537" d="M269.779,109.063V96.585h3.488c1.022,0,1.939,0.232,2.751,0.698c0.811,0.466,1.443,1.133,1.898,2.001
			c0.454,0.869,0.681,1.857,0.681,2.966v1.148c0,1.114-0.226,2.103-0.677,2.966c-0.451,0.862-1.087,1.528-1.907,1.996
			c-0.819,0.469-1.761,0.703-2.823,0.703H269.779z M270.832,97.477v10.695h2.365c1.314,0,2.368-0.436,3.163-1.308
			c0.794-0.872,1.191-2.052,1.191-3.538v-1.098c0-1.436-0.392-2.585-1.175-3.448c-0.782-0.863-1.813-1.298-3.094-1.304H270.832z"/>
		<path fill="#EF4537" d="M286.602,108.172h6.162v0.892h-7.225V96.585h1.063V108.172z"/>
		<path fill="#EF4537" d="M295.849,108.172h6.162v0.892h-7.225V96.585h1.063V108.172z"/>
		<path fill="#EF4537" d="M312.313,105.173c-0.144,1.313-0.613,2.319-1.41,3.017s-1.858,1.046-3.184,1.046
			c-0.926,0-1.744-0.231-2.455-0.694c-0.712-0.463-1.262-1.119-1.65-1.967c-0.389-0.849-0.586-1.818-0.591-2.91v-1.619
			c0-1.109,0.193-2.092,0.582-2.949c0.389-0.856,0.947-1.518,1.676-1.983s1.567-0.699,2.516-0.699c1.337,0,2.393,0.36,3.167,1.08
			c0.773,0.72,1.224,1.717,1.35,2.991h-1.063c-0.264-2.12-1.414-3.18-3.454-3.18c-1.132,0-2.033,0.423-2.704,1.27
			s-1.007,2.016-1.007,3.508v1.527c0,1.44,0.327,2.59,0.981,3.447c0.654,0.858,1.538,1.287,2.652,1.287
			c1.103,0,1.934-0.265,2.494-0.793c0.56-0.528,0.905-1.321,1.037-2.378H312.313z"/>
	</g>
</g>
</svg>
